<mxfile host="65bd71144e" modified="2023-02-06T09:50:10.838Z" agent="5.0 (Macintosh; Intel Mac OS X 12_4_0) AppleWebKit/537.36 (KHTML, like Gecko) Code/1.73.1 Chrome/102.0.5005.167 Electron/19.0.17 Safari/537.36" version="20.8.16" etag="8mBc67nFDQTCE5-NFP9s" type="embed">
    <diagram id="nS-_FfMNbykbzj3_wttg" name="Page-1">
        <mxGraphModel dx="974" dy="747" grid="1" gridSize="10" guides="1" tooltips="1" connect="1" arrows="1" fold="1" page="1" pageScale="1" pageWidth="827" pageHeight="1169" math="0" shadow="0">
            <root>
                <mxCell id="0"/>
                <mxCell id="1" parent="0"/>
                <mxCell id="18" style="edgeStyle=none;html=1;exitX=1;exitY=0.5;exitDx=0;exitDy=0;entryX=0;entryY=0.5;entryDx=0;entryDy=0;dashed=1;" edge="1" parent="1" source="2" target="9">
                    <mxGeometry relative="1" as="geometry"/>
                </mxCell>
                <mxCell id="2" value="Clearinghouse" style="swimlane;whiteSpace=wrap;html=1;" vertex="1" parent="1">
                    <mxGeometry x="217" y="240" width="160" height="154" as="geometry"/>
                </mxCell>
                <mxCell id="3" value="Bilder &amp;amp; Reports" style="strokeWidth=2;html=1;shape=mxgraph.flowchart.database;whiteSpace=wrap;labelPosition=center;verticalLabelPosition=top;align=center;verticalAlign=bottom;" vertex="1" parent="2">
                    <mxGeometry x="42" y="60" width="76" height="50" as="geometry"/>
                </mxCell>
                <mxCell id="8" value="30-Tage Speicher" style="text;html=1;strokeColor=none;fillColor=none;align=center;verticalAlign=middle;whiteSpace=wrap;rounded=0;" vertex="1" parent="2">
                    <mxGeometry x="-3" y="124" width="110" height="30" as="geometry"/>
                </mxCell>
                <mxCell id="22" style="edgeStyle=none;html=1;exitX=1;exitY=0.5;exitDx=0;exitDy=0;entryX=0;entryY=0.5;entryDx=0;entryDy=0;dashed=1;" edge="1" parent="1" source="9" target="19">
                    <mxGeometry relative="1" as="geometry"/>
                </mxCell>
                <mxCell id="23" style="edgeStyle=none;html=1;exitX=1;exitY=0.5;exitDx=0;exitDy=0;entryX=0;entryY=0.5;entryDx=0;entryDy=0;dashed=1;" edge="1" parent="1" source="9" target="20">
                    <mxGeometry relative="1" as="geometry"/>
                </mxCell>
                <mxCell id="9" value="PHR Vendor" style="swimlane;whiteSpace=wrap;html=1;" vertex="1" parent="1">
                    <mxGeometry x="447" y="240" width="160" height="154" as="geometry"/>
                </mxCell>
                <mxCell id="10" value="Bilder &amp;amp; Reports" style="strokeWidth=2;html=1;shape=mxgraph.flowchart.database;whiteSpace=wrap;labelPosition=center;verticalLabelPosition=top;align=center;verticalAlign=bottom;" vertex="1" parent="9">
                    <mxGeometry x="42" y="60" width="76" height="50" as="geometry"/>
                </mxCell>
                <mxCell id="11" value="Dauerhafter Speicher" style="text;html=1;strokeColor=none;fillColor=none;align=center;verticalAlign=middle;whiteSpace=wrap;rounded=0;" vertex="1" parent="9">
                    <mxGeometry x="-3" y="124" width="133" height="30" as="geometry"/>
                </mxCell>
                <mxCell id="13" value="" style="endArrow=block;html=1;endFill=1;startArrow=none;startFill=1;edgeStyle=elbowEdgeStyle;elbow=vertical;exitX=0.5;exitY=1;exitDx=0;exitDy=0;" edge="1" parent="1" source="16">
                    <mxGeometry width="160" relative="1" as="geometry">
                        <mxPoint x="514" y="500" as="sourcePoint"/>
                        <mxPoint x="527" y="470" as="targetPoint"/>
                    </mxGeometry>
                </mxCell>
                <mxCell id="19" value="Arzt A" style="rounded=1;whiteSpace=wrap;html=1;" vertex="1" parent="1">
                    <mxGeometry x="694" y="230" width="120" height="60" as="geometry"/>
                </mxCell>
                <mxCell id="20" value="Arzt B" style="rounded=1;whiteSpace=wrap;html=1;" vertex="1" parent="1">
                    <mxGeometry x="694" y="350" width="120" height="60" as="geometry"/>
                </mxCell>
                <mxCell id="25" style="edgeStyle=none;html=1;exitX=1;exitY=0.5;exitDx=0;exitDy=0;entryX=0;entryY=0.5;entryDx=0;entryDy=0;dashed=1;" edge="1" parent="1" source="24" target="2">
                    <mxGeometry relative="1" as="geometry"/>
                </mxCell>
                <mxCell id="24" value="Radiologie-Zentrum" style="rounded=1;whiteSpace=wrap;html=1;" vertex="1" parent="1">
                    <mxGeometry x="14" y="287" width="120" height="60" as="geometry"/>
                </mxCell>
                <mxCell id="26" value="" style="endArrow=none;html=1;endFill=1;startArrow=oval;startFill=1;edgeStyle=elbowEdgeStyle;elbow=vertical;exitX=0.5;exitY=1;exitDx=0;exitDy=0;" edge="1" parent="1" source="9" target="16">
                    <mxGeometry width="160" relative="1" as="geometry">
                        <mxPoint x="527" y="394" as="sourcePoint"/>
                        <mxPoint x="527" y="470" as="targetPoint"/>
                    </mxGeometry>
                </mxCell>
                <mxCell id="16" value="Patient" style="ellipse;whiteSpace=wrap;html=1;aspect=fixed;" vertex="1" parent="1">
                    <mxGeometry x="487" y="440" width="80" height="80" as="geometry"/>
                </mxCell>
            </root>
        </mxGraphModel>
    </diagram>
</mxfile>